<svg xmlns="http://www.w3.org/2000/svg" xmlns:xlink="http://www.w3.org/1999/xlink" xmlns:lucid="lucid" width="820" height="176"><g transform="translate(-360 -480)" lucid:page-tab-id="0_0"><path d="M0 0h1760v1360H0z" fill="#fff"/><path d="M380 508a8 8 0 0 1 8-8h304a8 8 0 0 1 8 8v120a8 8 0 0 1-8 8H388a8 8 0 0 1-8-8z" fill="#fff"/><path d="M380 508a8 8 0 0 1 8-8h304a8 8 0 0 1 8 8v120a8 8 0 0 1-8 8H388a8 8 0 0 1-8-8zM380 540h320M440 540v96M552 540v96" stroke="#333" fill="none"/><use xlink:href="#a" transform="matrix(1,0,0,1,390,500) translate(116 23.6)"/><use xlink:href="#b" transform="matrix(1,0,0,1,385,542.5) translate(13 17.1)"/><use xlink:href="#c" transform="matrix(1,0,0,1,445,542.5) translate(42.025 17.1)"/><use xlink:href="#d" transform="matrix(1,0,0,1,557,542.5) translate(29.074999999999996 17.1)"/><use xlink:href="#e" transform="matrix(1,0,0,1,385,574.5) translate(13.524999999999999 17.1)"/><use xlink:href="#f" transform="matrix(1,0,0,1,445,574.5) translate(13.574999999999996 17.1)"/><use xlink:href="#d" transform="matrix(1,0,0,1,557,574.5) translate(29.074999999999996 17.1)"/><use xlink:href="#g" transform="matrix(1,0,0,1,445,606.5) translate(28.525 17.1)"/><use xlink:href="#h" transform="matrix(1,0,0,1,557,606.5) translate(46.05 17.1)"/><path d="M840 508a8 8 0 0 1 8-8h304a8 8 0 0 1 8 8v88a8 8 0 0 1-8 8H848a8 8 0 0 1-8-8z" fill="#fff"/><path d="M840 508a8 8 0 0 1 8-8h304a8 8 0 0 1 8 8v88a8 8 0 0 1-8 8H848a8 8 0 0 1-8-8zM840 540h320M900 540v64M1012 540v64" stroke="#333" fill="none"/><use xlink:href="#i" transform="matrix(1,0,0,1,850,500) translate(119.525 23.6)"/><use xlink:href="#b" transform="matrix(1,0,0,1,845,542.5) translate(13 17.1)"/><use xlink:href="#c" transform="matrix(1,0,0,1,905,542.5) translate(42.025 17.1)"/><use xlink:href="#d" transform="matrix(1,0,0,1,1017,542.5) translate(29.074999999999996 17.1)"/><use xlink:href="#g" transform="matrix(1,0,0,1,905,574.5) translate(28.525 17.1)"/><use xlink:href="#h" transform="matrix(1,0,0,1,1017,574.5) translate(46.05 17.1)"/><path d="M819.5 556H782a12 12 0 0 0-12 12v8a12 12 0 0 1-12 12h-38.1" stroke="#333" fill="none"/><path d="M819.5 546v20M839.5 556h-20" stroke="#333" fill="#fff"/><path d="M700.72 578l20 10-20 10" stroke="#333" fill="#fff" fill-opacity="0"/><path d="M700.72 588h20" stroke="#333" fill="#fff"/><defs><path fill="#333" d="M135-143c-3-34-86-38-87 0 15 53 115 12 119 90S17 21 10-45l28-5c4 36 97 45 98 0-10-56-113-15-118-90-4-57 82-63 122-42 12 7 21 19 24 35" id="j"/><path fill="#333" d="M59-47c-2 24 18 29 38 22v24C64 9 27 4 27-40v-127H5v-23h24l9-43h21v43h35v23H59v120" id="k"/><path fill="#333" d="M84 4C-5 8 30-112 23-190h32v120c0 31 7 50 39 49 72-2 45-101 50-169h31l1 190h-30c-1-10 1-25-2-33-11 22-28 36-60 37" id="l"/><path fill="#333" d="M85-194c31 0 48 13 60 33l-1-100h32l1 261h-30c-2-10 0-23-3-31C134-8 116 4 85 4 32 4 16-35 15-94c0-66 23-100 70-100zm9 24c-40 0-46 34-46 75 0 40 6 74 45 74 42 0 51-32 51-76 0-42-9-74-50-73" id="m"/><path fill="#333" d="M100-194c63 0 86 42 84 106H49c0 40 14 67 53 68 26 1 43-12 49-29l28 8c-11 28-37 45-77 45C44 4 14-33 15-96c1-61 26-98 85-98zm52 81c6-60-76-77-97-28-3 7-6 17-6 28h103" id="n"/><path fill="#333" d="M117-194c89-4 53 116 60 194h-32v-121c0-31-8-49-39-48C34-167 62-67 57 0H25l-1-190h30c1 10-1 24 2 32 11-22 29-35 61-36" id="o"/><g id="a"><use transform="matrix(0.05,0,0,0.05,0,0)" xlink:href="#j"/><use transform="matrix(0.05,0,0,0.05,9,0)" xlink:href="#k"/><use transform="matrix(0.05,0,0,0.05,14,0)" xlink:href="#l"/><use transform="matrix(0.05,0,0,0.05,24,0)" xlink:href="#m"/><use transform="matrix(0.05,0,0,0.05,34,0)" xlink:href="#n"/><use transform="matrix(0.05,0,0,0.05,44,0)" xlink:href="#o"/><use transform="matrix(0.05,0,0,0.05,54,0)" xlink:href="#k"/><use transform="matrix(0.05,0,0,0.05,59,0)" xlink:href="#j"/></g><path fill="#333" d="M30-248c87 1 191-15 191 75 0 78-77 80-158 76V0H30v-248zm33 125c57 0 124 11 124-50 0-59-68-47-124-48v98" id="p"/><path fill="#333" d="M194 0L95-120 63-95V0H30v-248h33v124l119-124h40L117-140 236 0h-42" id="q"/><g id="b"><use transform="matrix(0.05,0,0,0.05,0,0)" xlink:href="#p"/><use transform="matrix(0.05,0,0,0.05,12,0)" xlink:href="#q"/></g><path fill="#333" d="M33 0v-248h34V0H33" id="r"/><path fill="#333" d="M30-248c118-7 216 8 213 122C240-48 200 0 122 0H30v-248zM63-27c89 8 146-16 146-99s-60-101-146-95v194" id="s"/><g id="c"><use transform="matrix(0.05,0,0,0.05,0,0)" xlink:href="#r"/><use transform="matrix(0.05,0,0,0.05,5,0)" xlink:href="#s"/><path fill="#333" d="M-.9 1.25h19.75v1.32H-.9z"/></g><path fill="#333" d="M190 0L58-211 59 0H30v-248h39L202-35l-2-213h31V0h-41" id="t"/><path fill="#333" d="M127-220V0H93v-220H8v-28h204v28h-85" id="u"/><path fill="#333" d="M30 0v-248h187v28H63v79h144v27H63v87h162V0H30" id="v"/><path fill="#333" d="M143 4C61 4 22-44 18-125c-5-107 100-154 193-111 17 8 29 25 37 43l-32 9c-13-25-37-40-76-40-61 0-88 39-88 99 0 61 29 100 91 101 35 0 62-11 79-27v-45h-74v-28h105v86C228-13 192 4 143 4" id="w"/><path fill="#333" d="M233-177c-1 41-23 64-60 70L243 0h-38l-65-103H63V0H30v-248c88 3 205-21 203 71zM63-129c60-2 137 13 137-47 0-61-80-42-137-45v92" id="x"/><g id="d"><use transform="matrix(0.05,0,0,0.05,0,0)" xlink:href="#r"/><use transform="matrix(0.05,0,0,0.05,5,0)" xlink:href="#t"/><use transform="matrix(0.05,0,0,0.05,17.950000000000003,0)" xlink:href="#u"/><use transform="matrix(0.05,0,0,0.05,28.900000000000006,0)" xlink:href="#v"/><use transform="matrix(0.05,0,0,0.05,40.900000000000006,0)" xlink:href="#w"/><use transform="matrix(0.05,0,0,0.05,54.900000000000006,0)" xlink:href="#v"/><use transform="matrix(0.05,0,0,0.05,66.9,0)" xlink:href="#x"/></g><path fill="#333" d="M63-220v92h138v28H63V0H30v-248h175v28H63" id="y"/><g id="e"><use transform="matrix(0.05,0,0,0.05,0,0)" xlink:href="#y"/><use transform="matrix(0.05,0,0,0.05,10.950000000000001,0)" xlink:href="#q"/></g><path fill="#333" d="M25 0v-261h50V0H25" id="z"/><path fill="#333" d="M185-48c-13 30-37 53-82 52C43 2 14-33 14-96s30-98 90-98c62 0 83 45 84 108H66c0 31 8 55 39 56 18 0 30-7 34-22zm-45-69c5-46-57-63-70-21-2 6-4 13-4 21h74" id="A"/><path fill="#333" d="M137-138c1-29-70-34-71-4 15 46 118 7 119 86 1 83-164 76-172 9l43-7c4 19 20 25 44 25 33 8 57-30 24-41C81-84 22-81 20-136c-2-80 154-74 161-7" id="B"/><path fill="#333" d="M110-194c64 0 96 36 96 99 0 64-35 99-97 99-61 0-95-36-95-99 0-62 34-99 96-99zm-1 164c35 0 45-28 45-65 0-40-10-65-43-65-34 0-45 26-45 65 0 36 10 65 43 65" id="C"/><path fill="#333" d="M135-194c87-1 58 113 63 194h-50c-7-57 23-157-34-157-59 0-34 97-39 157H25l-1-190h47c2 12-1 28 3 38 12-26 28-41 61-42" id="D"/><path fill="#333" d="M24 0v-248h52V0H24" id="E"/><path fill="#333" d="M24-248c120-7 223 5 221 122C244-46 201 0 124 0H24v-248zM76-40c74 7 117-18 117-86 0-67-45-88-117-82v168" id="F"/><g id="f"><use transform="matrix(0.05,0,0,0.05,0,0)" xlink:href="#z"/><use transform="matrix(0.05,0,0,0.05,5,0)" xlink:href="#A"/><use transform="matrix(0.05,0,0,0.05,15,0)" xlink:href="#B"/><use transform="matrix(0.05,0,0,0.05,25,0)" xlink:href="#B"/><use transform="matrix(0.05,0,0,0.05,35,0)" xlink:href="#C"/><use transform="matrix(0.05,0,0,0.05,45.95,0)" xlink:href="#D"/><use transform="matrix(0.05,0,0,0.05,56.900000000000006,0)" xlink:href="#E"/><use transform="matrix(0.05,0,0,0.05,61.900000000000006,0)" xlink:href="#F"/></g><path fill="#333" d="M141-36C126-15 110 5 73 4 37 3 15-17 15-53c-1-64 63-63 125-63 3-35-9-54-41-54-24 1-41 7-42 31l-33-3c5-37 33-52 76-52 45 0 72 20 72 64v82c-1 20 7 32 28 27v20c-31 9-61-2-59-35zM48-53c0 20 12 33 32 33 41-3 63-29 60-74-43 2-92-5-92 41" id="G"/><path fill="#333" d="M210-169c-67 3-38 105-44 169h-31v-121c0-29-5-50-35-48C34-165 62-65 56 0H25l-1-190h30c1 10-1 24 2 32 10-44 99-50 107 0 11-21 27-35 58-36 85-2 47 119 55 194h-31v-121c0-29-5-49-35-48" id="H"/><g id="g"><use transform="matrix(0.05,0,0,0.05,0,0)" xlink:href="#o"/><use transform="matrix(0.05,0,0,0.05,10,0)" xlink:href="#G"/><use transform="matrix(0.05,0,0,0.05,20,0)" xlink:href="#H"/><use transform="matrix(0.05,0,0,0.05,34.95,0)" xlink:href="#n"/></g><path fill="#333" d="M195 0l-74-108L45 0H8l94-129-87-119h37l69 98 67-98h37l-84 118L233 0h-38" id="I"/><g id="h"><use transform="matrix(0.05,0,0,0.05,0,0)" xlink:href="#u"/><use transform="matrix(0.05,0,0,0.05,10.950000000000001,0)" xlink:href="#v"/><use transform="matrix(0.05,0,0,0.05,22.950000000000003,0)" xlink:href="#I"/><use transform="matrix(0.05,0,0,0.05,34.95,0)" xlink:href="#u"/></g><path fill="#333" d="M24 0v-261h32V0H24" id="J"/><path fill="#333" d="M100-194c62-1 85 37 85 99 1 63-27 99-86 99S16-35 15-95c0-66 28-99 85-99zM99-20c44 1 53-31 53-75 0-43-8-75-51-75s-53 32-53 75 10 74 51 75" id="K"/><g id="i"><use transform="matrix(0.05,0,0,0.05,0,0)" xlink:href="#J"/><use transform="matrix(0.05,0,0,0.05,3.95,0)" xlink:href="#n"/><use transform="matrix(0.05,0,0,0.05,13.949999999999998,0)" xlink:href="#j"/><use transform="matrix(0.05,0,0,0.05,22.95,0)" xlink:href="#j"/><use transform="matrix(0.05,0,0,0.05,31.950000000000003,0)" xlink:href="#K"/><use transform="matrix(0.05,0,0,0.05,41.95,0)" xlink:href="#o"/><use transform="matrix(0.05,0,0,0.05,51.95,0)" xlink:href="#j"/></g></defs></g></svg>