<svg xmlns="http://www.w3.org/2000/svg" xmlns:xlink="http://www.w3.org/1999/xlink" xmlns:lucid="lucid" width="1240" height="408"><g transform="translate(-320 -188)" lucid:page-tab-id="0_0"><path d="M0 0h1760v1360H0z" fill="#fff"/><path d="M340 248a8 8 0 0 1 8-8h224a8 8 0 0 1 8 8v88a8 8 0 0 1-8 8H348a8 8 0 0 1-8-8z" fill="#fff"/><path d="M340 248a8 8 0 0 1 8-8h224a8 8 0 0 1 8 8v88a8 8 0 0 1-8 8H348a8 8 0 0 1-8-8zM340 280h240M400 280v64M520 280v64" stroke="#333" fill="none"/><use xlink:href="#a" transform="matrix(1,0,0,1,350,240) translate(86.55 23.6)"/><use xlink:href="#b" transform="matrix(1,0,0,1,345,282.5) translate(13 17.1)"/><use xlink:href="#c" transform="matrix(1,0,0,1,405,282.5) translate(28.549999999999997 17.1)"/><use xlink:href="#d" transform="matrix(1,0,0,1,525,282.5) translate(10.549999999999997 17.1)"/><use xlink:href="#e" transform="matrix(1,0,0,1,405,314.5) translate(15.049999999999997 17.1)"/><use xlink:href="#f" transform="matrix(1,0,0,1,525,314.5) translate(2.049999999999997 17.1)"/><path d="M860 216a8 8 0 0 1 8-8h324a8 8 0 0 1 8 8v120a8 8 0 0 1-8 8H868a8 8 0 0 1-8-8z" fill="#fff"/><path d="M860 216a8 8 0 0 1 8-8h324a8 8 0 0 1 8 8v120a8 8 0 0 1-8 8H868a8 8 0 0 1-8-8zM860 248h340M920 248v96M1140 248v96" stroke="#333" fill="none"/><use xlink:href="#g" transform="matrix(1,0,0,1,870,208) translate(131.575 23.6)"/><use xlink:href="#b" transform="matrix(1,0,0,1,865,250.5) translate(13 17.1)"/><use xlink:href="#h" transform="matrix(1,0,0,1,925,250.5) translate(72.1 17.1)"/><use xlink:href="#d" transform="matrix(1,0,0,1,1145,250.5) translate(10.549999999999997 17.1)"/><use xlink:href="#i" transform="matrix(1,0,0,1,865,282.5) translate(13.524999999999999 17.1)"/><use xlink:href="#j" transform="matrix(1,0,0,1,925,282.5) translate(77.05 17.1)"/><use xlink:href="#d" transform="matrix(1,0,0,1,1145,282.5) translate(10.549999999999997 17.1)"/><use xlink:href="#k" transform="matrix(1,0,0,1,925,314.5) translate(58.6 17.1)"/><use xlink:href="#f" transform="matrix(1,0,0,1,1145,314.5) translate(2.049999999999997 17.1)"/><path d="M880 448a8 8 0 0 1 8-8h224a8 8 0 0 1 8 8v120a8 8 0 0 1-8 8H888a8 8 0 0 1-8-8z" fill="#fff"/><path d="M880 448a8 8 0 0 1 8-8h224a8 8 0 0 1 8 8v120a8 8 0 0 1-8 8H888a8 8 0 0 1-8-8zM880 480h240M940 480v96M1060 480v96" stroke="#333" fill="none"/><use xlink:href="#l" transform="matrix(1,0,0,1,890,440) translate(68.55 23.6)"/><use xlink:href="#b" transform="matrix(1,0,0,1,885,482.5) translate(13 17.1)"/><use xlink:href="#m" transform="matrix(1,0,0,1,945,482.5) translate(11.549999999999997 17.1)"/><use xlink:href="#d" transform="matrix(1,0,0,1,1065,482.5) translate(10.549999999999997 17.1)"/><use xlink:href="#i" transform="matrix(1,0,0,1,885,514.5) translate(13.524999999999999 17.1)"/><use xlink:href="#n" transform="matrix(1,0,0,1,945,514.5) translate(32.575 17.1)"/><use xlink:href="#d" transform="matrix(1,0,0,1,1065,514.5) translate(10.549999999999997 17.1)"/><use xlink:href="#o" transform="matrix(1,0,0,1,945,546.5) translate(32.525 17.1)"/><use xlink:href="#f" transform="matrix(1,0,0,1,1065,546.5) translate(2.049999999999997 17.1)"/><path d="M1300 448a8 8 0 0 1 8-8h224a8 8 0 0 1 8 8v120a8 8 0 0 1-8 8h-224a8 8 0 0 1-8-8z" fill="#fff"/><path d="M1300 448a8 8 0 0 1 8-8h224a8 8 0 0 1 8 8v120a8 8 0 0 1-8 8h-224a8 8 0 0 1-8-8zM1300 480h240M1360 480v96M1480 480v96" stroke="#333" fill="none"/><use xlink:href="#p" transform="matrix(1,0,0,1,1310,440) translate(41.125 23.6)"/><use xlink:href="#q" transform="matrix(1,0,0,1,1310,440) translate(95.975 23.6)"/><use xlink:href="#r" transform="matrix(1,0,0,1,1310,440) translate(105.975 23.6)"/><use xlink:href="#b" transform="matrix(1,0,0,1,1305,482.5) translate(13 17.1)"/><use xlink:href="#s" transform="matrix(1,0,0,1,1365,482.5) translate(38.4 17.1)"/><use xlink:href="#f" transform="matrix(1,0,0,1,1485,482.5) translate(2.049999999999997 17.1)"/><use xlink:href="#i" transform="matrix(1,0,0,1,1305,514.5) translate(13.524999999999999 17.1)"/><use xlink:href="#t" transform="matrix(1,0,0,1,1365,514.5) translate(7.124999999999993 17.1)"/><use xlink:href="#d" transform="matrix(1,0,0,1,1485,514.5) translate(10.549999999999997 17.1)"/><use xlink:href="#i" transform="matrix(1,0,0,1,1305,546.5) translate(13.524999999999999 17.1)"/><use xlink:href="#u" transform="matrix(1,0,0,1,1365,546.5) translate(19.549999999999997 17.1)"/><use xlink:href="#d" transform="matrix(1,0,0,1,1485,546.5) translate(10.549999999999997 17.1)"/><path d="M600.5 296h239.6" stroke="#333" fill="none"/><path d="M600.5 306v-20M580.5 296h20" stroke="#333" fill="#fff"/><path d="M859.28 306l-20-10 20-10" stroke="#333" fill="#fff" fill-opacity="0"/><path d="M859.28 296h-20" stroke="#333" fill="#fff"/><path d="M1220.5 264h17.5a12 12 0 0 1 12 12v240a12 12 0 0 0 12 12h18.1" stroke="#333" fill="none"/><path d="M1220.5 274v-20M1200.5 264h20" stroke="#333" fill="#fff"/><path d="M1299.28 538l-20-10 20-10" stroke="#333" fill="#fff" fill-opacity="0"/><path d="M1299.28 528h-20" stroke="#333" fill="#fff"/><path d="M420 448a8 8 0 0 1 8-8h224a8 8 0 0 1 8 8v120a8 8 0 0 1-8 8H428a8 8 0 0 1-8-8z" fill="#fff"/><path d="M420 448a8 8 0 0 1 8-8h224a8 8 0 0 1 8 8v120a8 8 0 0 1-8 8H428a8 8 0 0 1-8-8zM420 480h240M480 480v96M600 480v96" stroke="#333" fill="none"/><use xlink:href="#v" transform="matrix(1,0,0,1,430,440) translate(93 23.6)"/><use xlink:href="#b" transform="matrix(1,0,0,1,425,482.5) translate(13 17.1)"/><use xlink:href="#w" transform="matrix(1,0,0,1,485,482.5) translate(33.525 17.1)"/><use xlink:href="#d" transform="matrix(1,0,0,1,605,482.5) translate(10.549999999999997 17.1)"/><use xlink:href="#x" transform="matrix(1,0,0,1,485,514.5) translate(41.05 17.1)"/><use xlink:href="#f" transform="matrix(1,0,0,1,605,514.5) translate(2.049999999999997 17.1)"/><use xlink:href="#y" transform="matrix(1,0,0,1,485,546.5) translate(35.55 17.1)"/><use xlink:href="#f" transform="matrix(1,0,0,1,605,546.5) translate(2.049999999999997 17.1)"/><path d="M1140.5 496h139.6" stroke="#333" fill="none"/><path d="M1140.5 506v-20M1120.5 496h20" stroke="#333" fill="#fff"/><path d="M1299.28 506l-20-10 20-10" stroke="#333" fill="#fff" fill-opacity="0"/><path d="M1299.28 496h-20" stroke="#333" fill="#fff"/><path d="M680.5 496H758a12 12 0 0 1 12 12v8a12 12 0 0 0 12 12h78.1" stroke="#333" fill="none"/><path d="M680.5 506v-20M660.5 496h20" stroke="#333" fill="#fff"/><path d="M879.28 538l-20-10 20-10" stroke="#333" fill="#fff" fill-opacity="0"/><path d="M879.28 528h-20" stroke="#333" fill="#fff"/><defs><path fill="#333" d="M232-93c-1 65-40 97-104 97C67 4 28-28 28-90v-158h33c8 89-33 224 67 224 102 0 64-133 71-224h33v155" id="z"/><path fill="#333" d="M135-143c-3-34-86-38-87 0 15 53 115 12 119 90S17 21 10-45l28-5c4 36 97 45 98 0-10-56-113-15-118-90-4-57 82-63 122-42 12 7 21 19 24 35" id="A"/><path fill="#333" d="M100-194c63 0 86 42 84 106H49c0 40 14 67 53 68 26 1 43-12 49-29l28 8c-11 28-37 45-77 45C44 4 14-33 15-96c1-61 26-98 85-98zm52 81c6-60-76-77-97-28-3 7-6 17-6 28h103" id="B"/><path fill="#333" d="M114-163C36-179 61-72 57 0H25l-1-190h30c1 12-1 29 2 39 6-27 23-49 58-41v29" id="C"/><g id="a"><use transform="matrix(0.05,0,0,0.05,0,0)" xlink:href="#z"/><use transform="matrix(0.05,0,0,0.05,12.950000000000001,0)" xlink:href="#A"/><use transform="matrix(0.05,0,0,0.05,21.950000000000003,0)" xlink:href="#B"/><use transform="matrix(0.05,0,0,0.05,31.950000000000003,0)" xlink:href="#C"/><use transform="matrix(0.05,0,0,0.05,37.900000000000006,0)" xlink:href="#A"/></g><path fill="#333" d="M30-248c87 1 191-15 191 75 0 78-77 80-158 76V0H30v-248zm33 125c57 0 124 11 124-50 0-59-68-47-124-48v98" id="D"/><path fill="#333" d="M194 0L95-120 63-95V0H30v-248h33v124l119-124h40L117-140 236 0h-42" id="E"/><g id="b"><use transform="matrix(0.05,0,0,0.05,0,0)" xlink:href="#D"/><use transform="matrix(0.05,0,0,0.05,12,0)" xlink:href="#E"/></g><path fill="#333" d="M84 4C-5 8 30-112 23-190h32v120c0 31 7 50 39 49 72-2 45-101 50-169h31l1 190h-30c-1-10 1-25-2-33-11 22-28 36-60 37" id="F"/><path fill="#333" d="M33 0v-248h34V0H33" id="G"/><path fill="#333" d="M30-248c118-7 216 8 213 122C240-48 200 0 122 0H30v-248zM63-27c89 8 146-16 146-99s-60-101-146-95v194" id="H"/><g id="c"><use transform="matrix(0.05,0,0,0.05,0,0)" xlink:href="#F"/><use transform="matrix(0.05,0,0,0.05,10,0)" xlink:href="#A"/><use transform="matrix(0.05,0,0,0.05,19,0)" xlink:href="#B"/><use transform="matrix(0.05,0,0,0.05,29,0)" xlink:href="#C"/><use transform="matrix(0.05,0,0,0.05,34.95,0)" xlink:href="#G"/><use transform="matrix(0.05,0,0,0.05,39.95,0)" xlink:href="#H"/><path fill="#333" d="M-.9 1.25h54.7v1.32H-.9z"/></g><path fill="#333" d="M190 0L58-211 59 0H30v-248h39L202-35l-2-213h31V0h-41" id="I"/><path fill="#333" d="M127-220V0H93v-220H8v-28h204v28h-85" id="J"/><g id="d"><use transform="matrix(0.05,0,0,0.05,0,0)" xlink:href="#G"/><use transform="matrix(0.05,0,0,0.05,5,0)" xlink:href="#I"/><use transform="matrix(0.05,0,0,0.05,17.950000000000003,0)" xlink:href="#J"/></g><path fill="#333" d="M117-194c89-4 53 116 60 194h-32v-121c0-31-8-49-39-48C34-167 62-67 57 0H25l-1-190h30c1 10-1 24 2 32 11-22 29-35 61-36" id="K"/><path fill="#333" d="M141-36C126-15 110 5 73 4 37 3 15-17 15-53c-1-64 63-63 125-63 3-35-9-54-41-54-24 1-41 7-42 31l-33-3c5-37 33-52 76-52 45 0 72 20 72 64v82c-1 20 7 32 28 27v20c-31 9-61-2-59-35zM48-53c0 20 12 33 32 33 41-3 63-29 60-74-43 2-92-5-92 41" id="L"/><path fill="#333" d="M210-169c-67 3-38 105-44 169h-31v-121c0-29-5-50-35-48C34-165 62-65 56 0H25l-1-190h30c1 10-1 24 2 32 10-44 99-50 107 0 11-21 27-35 58-36 85-2 47 119 55 194h-31v-121c0-29-5-49-35-48" id="M"/><g id="e"><use transform="matrix(0.05,0,0,0.05,0,0)" xlink:href="#F"/><use transform="matrix(0.05,0,0,0.05,10,0)" xlink:href="#A"/><use transform="matrix(0.05,0,0,0.05,19,0)" xlink:href="#B"/><use transform="matrix(0.05,0,0,0.05,29,0)" xlink:href="#C"/><use transform="matrix(0.05,0,0,0.05,34.95,0)" xlink:href="#K"/><use transform="matrix(0.05,0,0,0.05,44.95,0)" xlink:href="#L"/><use transform="matrix(0.05,0,0,0.05,54.95,0)" xlink:href="#M"/><use transform="matrix(0.05,0,0,0.05,69.9,0)" xlink:href="#B"/></g><path fill="#333" d="M30 0v-248h187v28H63v79h144v27H63v87h162V0H30" id="N"/><path fill="#333" d="M195 0l-74-108L45 0H8l94-129-87-119h37l69 98 67-98h37l-84 118L233 0h-38" id="O"/><g id="f"><use transform="matrix(0.05,0,0,0.05,0,0)" xlink:href="#J"/><use transform="matrix(0.05,0,0,0.05,10.950000000000001,0)" xlink:href="#N"/><use transform="matrix(0.05,0,0,0.05,22.950000000000003,0)" xlink:href="#O"/><use transform="matrix(0.05,0,0,0.05,34.95,0)" xlink:href="#J"/></g><path fill="#333" d="M59-47c-2 24 18 29 38 22v24C64 9 27 4 27-40v-127H5v-23h24l9-43h21v43h35v23H59v120" id="P"/><path fill="#333" d="M24-231v-30h32v30H24zM24 0v-190h32V0H24" id="Q"/><path fill="#333" d="M96-169c-40 0-48 33-48 73s9 75 48 75c24 0 41-14 43-38l32 2c-6 37-31 61-74 61-59 0-76-41-82-99-10-93 101-131 147-64 4 7 5 14 7 22l-32 3c-4-21-16-35-41-35" id="R"/><path fill="#333" d="M24 0v-261h32V0H24" id="S"/><g id="g"><use transform="matrix(0.05,0,0,0.05,0,0)" xlink:href="#L"/><use transform="matrix(0.05,0,0,0.05,10,0)" xlink:href="#C"/><use transform="matrix(0.05,0,0,0.05,15.949999999999998,0)" xlink:href="#P"/><use transform="matrix(0.05,0,0,0.05,20.95,0)" xlink:href="#Q"/><use transform="matrix(0.05,0,0,0.05,24.9,0)" xlink:href="#R"/><use transform="matrix(0.05,0,0,0.05,33.9,0)" xlink:href="#S"/><use transform="matrix(0.05,0,0,0.05,37.85,0)" xlink:href="#B"/><use transform="matrix(0.05,0,0,0.05,47.85,0)" xlink:href="#A"/></g><g id="h"><use transform="matrix(0.05,0,0,0.05,0,0)" xlink:href="#L"/><use transform="matrix(0.05,0,0,0.05,10,0)" xlink:href="#C"/><use transform="matrix(0.05,0,0,0.05,15.949999999999998,0)" xlink:href="#P"/><use transform="matrix(0.05,0,0,0.05,20.95,0)" xlink:href="#Q"/><use transform="matrix(0.05,0,0,0.05,24.9,0)" xlink:href="#R"/><use transform="matrix(0.05,0,0,0.05,33.9,0)" xlink:href="#S"/><use transform="matrix(0.05,0,0,0.05,37.85,0)" xlink:href="#B"/><use transform="matrix(0.05,0,0,0.05,47.85,0)" xlink:href="#G"/><use transform="matrix(0.05,0,0,0.05,52.85,0)" xlink:href="#H"/><path fill="#333" d="M-.9 1.25h67.6v1.32H-.9z"/></g><path fill="#333" d="M63-220v92h138v28H63V0H30v-248h175v28H63" id="T"/><g id="i"><use transform="matrix(0.05,0,0,0.05,0,0)" xlink:href="#T"/><use transform="matrix(0.05,0,0,0.05,10.950000000000001,0)" xlink:href="#E"/></g><path fill="#333" d="M85 4C-2 5 27-109 22-190h50c7 57-23 150 33 157 60-5 35-97 40-157h50l1 190h-47c-2-12 1-28-3-38-12 25-28 42-61 42" id="U"/><path fill="#333" d="M137-138c1-29-70-34-71-4 15 46 118 7 119 86 1 83-164 76-172 9l43-7c4 19 20 25 44 25 33 8 57-30 24-41C81-84 22-81 20-136c-2-80 154-74 161-7" id="V"/><path fill="#333" d="M185-48c-13 30-37 53-82 52C43 2 14-33 14-96s30-98 90-98c62 0 83 45 84 108H66c0 31 8 55 39 56 18 0 30-7 34-22zm-45-69c5-46-57-63-70-21-2 6-4 13-4 21h74" id="W"/><path fill="#333" d="M135-150c-39-12-60 13-60 57V0H25l-1-190h47c2 13-1 29 3 40 6-28 27-53 61-41v41" id="X"/><path fill="#333" d="M24 0v-248h52V0H24" id="Y"/><path fill="#333" d="M24-248c120-7 223 5 221 122C244-46 201 0 124 0H24v-248zM76-40c74 7 117-18 117-86 0-67-45-88-117-82v168" id="Z"/><g id="j"><use transform="matrix(0.05,0,0,0.05,0,0)" xlink:href="#U"/><use transform="matrix(0.05,0,0,0.05,10.950000000000001,0)" xlink:href="#V"/><use transform="matrix(0.05,0,0,0.05,20.950000000000003,0)" xlink:href="#W"/><use transform="matrix(0.05,0,0,0.05,30.950000000000003,0)" xlink:href="#X"/><use transform="matrix(0.05,0,0,0.05,37.95,0)" xlink:href="#Y"/><use transform="matrix(0.05,0,0,0.05,42.95,0)" xlink:href="#Z"/></g><g id="k"><use transform="matrix(0.05,0,0,0.05,0,0)" xlink:href="#L"/><use transform="matrix(0.05,0,0,0.05,10,0)" xlink:href="#C"/><use transform="matrix(0.05,0,0,0.05,15.949999999999998,0)" xlink:href="#P"/><use transform="matrix(0.05,0,0,0.05,20.95,0)" xlink:href="#Q"/><use transform="matrix(0.05,0,0,0.05,24.9,0)" xlink:href="#R"/><use transform="matrix(0.05,0,0,0.05,33.9,0)" xlink:href="#S"/><use transform="matrix(0.05,0,0,0.05,37.85,0)" xlink:href="#B"/><use transform="matrix(0.05,0,0,0.05,47.85,0)" xlink:href="#K"/><use transform="matrix(0.05,0,0,0.05,57.85,0)" xlink:href="#L"/><use transform="matrix(0.05,0,0,0.05,67.85,0)" xlink:href="#M"/><use transform="matrix(0.05,0,0,0.05,82.8,0)" xlink:href="#B"/></g><path fill="#333" d="M177-190C167-65 218 103 67 71c-23-6-38-20-44-43l32-5c15 47 100 32 89-28v-30C133-14 115 1 83 1 29 1 15-40 15-95c0-56 16-97 71-98 29-1 48 16 59 35 1-10 0-23 2-32h30zM94-22c36 0 50-32 50-73 0-42-14-75-50-75-39 0-46 34-46 75s6 73 46 73" id="aa"/><path fill="#333" d="M100-194c62-1 85 37 85 99 1 63-27 99-86 99S16-35 15-95c0-66 28-99 85-99zM99-20c44 1 53-31 53-75 0-43-8-75-51-75s-53 32-53 75 10 74 51 75" id="ab"/><g id="l"><use transform="matrix(0.05,0,0,0.05,0,0)" xlink:href="#R"/><use transform="matrix(0.05,0,0,0.05,9,0)" xlink:href="#L"/><use transform="matrix(0.05,0,0,0.05,19,0)" xlink:href="#P"/><use transform="matrix(0.05,0,0,0.05,24,0)" xlink:href="#B"/><use transform="matrix(0.05,0,0,0.05,34,0)" xlink:href="#aa"/><use transform="matrix(0.05,0,0,0.05,44,0)" xlink:href="#ab"/><use transform="matrix(0.05,0,0,0.05,54,0)" xlink:href="#C"/><use transform="matrix(0.05,0,0,0.05,59.95,0)" xlink:href="#Q"/><use transform="matrix(0.05,0,0,0.05,63.900000000000006,0)" xlink:href="#B"/><use transform="matrix(0.05,0,0,0.05,73.9,0)" xlink:href="#A"/></g><path fill="#333" d="M179-190L93 31C79 59 56 82 12 73V49c39 6 53-20 64-50L1-190h34L92-34l54-156h33" id="ac"/><g id="m"><use transform="matrix(0.05,0,0,0.05,0,0)" xlink:href="#R"/><use transform="matrix(0.05,0,0,0.05,9,0)" xlink:href="#L"/><use transform="matrix(0.05,0,0,0.05,19,0)" xlink:href="#P"/><use transform="matrix(0.05,0,0,0.05,24,0)" xlink:href="#B"/><use transform="matrix(0.05,0,0,0.05,34,0)" xlink:href="#aa"/><use transform="matrix(0.05,0,0,0.05,44,0)" xlink:href="#ab"/><use transform="matrix(0.05,0,0,0.05,54,0)" xlink:href="#C"/><use transform="matrix(0.05,0,0,0.05,59.95,0)" xlink:href="#ac"/><use transform="matrix(0.05,0,0,0.05,68.95,0)" xlink:href="#G"/><use transform="matrix(0.05,0,0,0.05,73.95,0)" xlink:href="#H"/><path fill="#333" d="M-.9 1.25h88.7v1.32H-.9z"/></g><path fill="#333" d="M115-3C79 11 28 4 28-45v-112H4v-33h27l15-45h31v45h36v33H77v99c-1 23 16 31 38 25v30" id="ad"/><path fill="#333" d="M133-34C117-15 103 5 69 4 32 3 11-16 11-54c-1-60 55-63 116-61 1-26-3-47-28-47-18 1-26 9-28 27l-52-2c7-38 36-58 82-57s74 22 75 68l1 82c-1 14 12 18 25 15v27c-30 8-71 5-69-32zm-48 3c29 0 43-24 42-57-32 0-66-3-65 30 0 17 8 27 23 27" id="ae"/><path fill="#333" d="M195-6C206 82 75 100 31 46c-4-6-6-13-8-21l49-6c3 16 16 24 34 25 40 0 42-37 40-79-11 22-30 35-61 35-53 0-70-43-70-97 0-56 18-96 73-97 30 0 46 14 59 34l2-30h47zm-90-29c32 0 41-27 41-63 0-35-9-62-40-62-32 0-39 29-40 63 0 36 9 62 39 62" id="af"/><g id="n"><use transform="matrix(0.05,0,0,0.05,0,0)" xlink:href="#ad"/><use transform="matrix(0.05,0,0,0.05,5.95,0)" xlink:href="#ae"/><use transform="matrix(0.05,0,0,0.05,15.949999999999998,0)" xlink:href="#af"/><use transform="matrix(0.05,0,0,0.05,26.899999999999995,0)" xlink:href="#Y"/><use transform="matrix(0.05,0,0,0.05,31.899999999999995,0)" xlink:href="#Z"/></g><g id="o"><use transform="matrix(0.05,0,0,0.05,0,0)" xlink:href="#K"/><use transform="matrix(0.05,0,0,0.05,10,0)" xlink:href="#L"/><use transform="matrix(0.05,0,0,0.05,20,0)" xlink:href="#M"/><use transform="matrix(0.05,0,0,0.05,34.95,0)" xlink:href="#B"/></g><path fill="#333" d="M205 0l-28-72H64L36 0H1l101-248h38L239 0h-34zm-38-99l-47-123c-12 45-31 82-46 123h93" id="ag"/><g id="p"><use transform="matrix(0.05,0,0,0.05,0,0)" xlink:href="#ag"/><use transform="matrix(0.05,0,0,0.05,12,0)" xlink:href="#C"/><use transform="matrix(0.05,0,0,0.05,17.95,0)" xlink:href="#P"/><use transform="matrix(0.05,0,0,0.05,22.95,0)" xlink:href="#Q"/><use transform="matrix(0.05,0,0,0.05,26.899999999999995,0)" xlink:href="#R"/><use transform="matrix(0.05,0,0,0.05,35.9,0)" xlink:href="#S"/><use transform="matrix(0.05,0,0,0.05,39.85,0)" xlink:href="#B"/></g><path fill="#333" d="M0 4l72-265h28L28 4H0" id="ah"/><use transform="matrix(0.05,0,0,0.05,0,0)" xlink:href="#ah" id="q"/><path fill="#333" d="M212-179c-10-28-35-45-73-45-59 0-87 40-87 99 0 60 29 101 89 101 43 0 62-24 78-52l27 14C228-24 195 4 139 4 59 4 22-46 18-125c-6-104 99-153 187-111 19 9 31 26 39 46" id="ai"/><g id="r"><use transform="matrix(0.05,0,0,0.05,0,0)" xlink:href="#ai"/><use transform="matrix(0.05,0,0,0.05,12.950000000000001,0)" xlink:href="#L"/><use transform="matrix(0.05,0,0,0.05,22.950000000000003,0)" xlink:href="#P"/><use transform="matrix(0.05,0,0,0.05,27.950000000000003,0)" xlink:href="#B"/><use transform="matrix(0.05,0,0,0.05,37.95,0)" xlink:href="#aa"/><use transform="matrix(0.05,0,0,0.05,47.95,0)" xlink:href="#ab"/><use transform="matrix(0.05,0,0,0.05,57.95,0)" xlink:href="#C"/><use transform="matrix(0.05,0,0,0.05,63.900000000000006,0)" xlink:href="#ac"/></g><g id="s"><use transform="matrix(0.05,0,0,0.05,0,0)" xlink:href="#J"/><use transform="matrix(0.05,0,0,0.05,10.3,0)" xlink:href="#Q"/><use transform="matrix(0.05,0,0,0.05,14.25,0)" xlink:href="#P"/><use transform="matrix(0.05,0,0,0.05,19.25,0)" xlink:href="#S"/><use transform="matrix(0.05,0,0,0.05,23.2,0)" xlink:href="#B"/><path fill="#333" d="M-.9 1.25h35v1.32h-35z"/></g><path fill="#333" d="M67-125c0 53 21 87 73 88 37 1 54-22 65-47l45 17C233-25 199 4 140 4 58 4 20-42 15-125 8-235 124-281 211-232c18 10 29 29 36 50l-46 12c-8-25-30-41-62-41-52 0-71 34-72 86" id="aj"/><path fill="#333" d="M110-194c64 0 96 36 96 99 0 64-35 99-97 99-61 0-95-36-95-99 0-62 34-99 96-99zm-1 164c35 0 45-28 45-65 0-40-10-65-43-65-34 0-45 26-45 65 0 36 10 65 43 65" id="ak"/><path fill="#333" d="M123 10C108 53 80 86 19 72V37c35 8 53-11 59-39L3-190h52l48 148c12-52 28-100 44-148h51" id="al"/><g id="t"><use transform="matrix(0.05,0,0,0.05,0,0)" xlink:href="#aj"/><use transform="matrix(0.05,0,0,0.05,12.950000000000001,0)" xlink:href="#ae"/><use transform="matrix(0.05,0,0,0.05,22.950000000000003,0)" xlink:href="#ad"/><use transform="matrix(0.05,0,0,0.05,28.900000000000002,0)" xlink:href="#W"/><use transform="matrix(0.05,0,0,0.05,38.900000000000006,0)" xlink:href="#af"/><use transform="matrix(0.05,0,0,0.05,49.85000000000001,0)" xlink:href="#ak"/><use transform="matrix(0.05,0,0,0.05,60.80000000000001,0)" xlink:href="#X"/><use transform="matrix(0.05,0,0,0.05,67.80000000000001,0)" xlink:href="#al"/><use transform="matrix(0.05,0,0,0.05,77.80000000000001,0)" xlink:href="#Y"/><use transform="matrix(0.05,0,0,0.05,82.80000000000001,0)" xlink:href="#Z"/></g><path fill="#333" d="M25-224v-37h50v37H25zM25 0v-190h50V0H25" id="am"/><path fill="#333" d="M190-63c-7 42-38 67-86 67-59 0-84-38-90-98-12-110 154-137 174-36l-49 2c-2-19-15-32-35-32-30 0-35 28-38 64-6 74 65 87 74 30" id="an"/><path fill="#333" d="M25 0v-261h50V0H25" id="ao"/><g id="u"><use transform="matrix(0.05,0,0,0.05,0,0)" xlink:href="#ae"/><use transform="matrix(0.05,0,0,0.05,10,0)" xlink:href="#X"/><use transform="matrix(0.05,0,0,0.05,17,0)" xlink:href="#ad"/><use transform="matrix(0.05,0,0,0.05,22.95,0)" xlink:href="#am"/><use transform="matrix(0.05,0,0,0.05,27.950000000000003,0)" xlink:href="#an"/><use transform="matrix(0.05,0,0,0.05,37.95,0)" xlink:href="#ao"/><use transform="matrix(0.05,0,0,0.05,42.95,0)" xlink:href="#W"/><use transform="matrix(0.05,0,0,0.05,52.95,0)" xlink:href="#Y"/><use transform="matrix(0.05,0,0,0.05,57.95,0)" xlink:href="#Z"/></g><g id="v"><use transform="matrix(0.05,0,0,0.05,0,0)" xlink:href="#P"/><use transform="matrix(0.05,0,0,0.05,5,0)" xlink:href="#L"/><use transform="matrix(0.05,0,0,0.05,15,0)" xlink:href="#aa"/><use transform="matrix(0.05,0,0,0.05,25,0)" xlink:href="#A"/></g><g id="w"><use transform="matrix(0.05,0,0,0.05,0,0)" xlink:href="#P"/><use transform="matrix(0.05,0,0,0.05,5,0)" xlink:href="#L"/><use transform="matrix(0.05,0,0,0.05,15,0)" xlink:href="#aa"/><use transform="matrix(0.05,0,0,0.05,25,0)" xlink:href="#G"/><use transform="matrix(0.05,0,0,0.05,30,0)" xlink:href="#H"/><path fill="#333" d="M-.9 1.25h44.75v1.32H-.9z"/></g><g id="x"><use transform="matrix(0.05,0,0,0.05,0,0)" xlink:href="#P"/><use transform="matrix(0.05,0,0,0.05,5,0)" xlink:href="#Q"/><use transform="matrix(0.05,0,0,0.05,8.95,0)" xlink:href="#P"/><use transform="matrix(0.05,0,0,0.05,13.949999999999998,0)" xlink:href="#S"/><use transform="matrix(0.05,0,0,0.05,17.9,0)" xlink:href="#B"/></g><g id="y"><use transform="matrix(0.05,0,0,0.05,0,0)" xlink:href="#R"/><use transform="matrix(0.05,0,0,0.05,9,0)" xlink:href="#ab"/><use transform="matrix(0.05,0,0,0.05,19,0)" xlink:href="#S"/><use transform="matrix(0.05,0,0,0.05,22.95,0)" xlink:href="#ab"/><use transform="matrix(0.05,0,0,0.05,32.95,0)" xlink:href="#C"/></g></defs></g></svg>