<svg xmlns="http://www.w3.org/2000/svg" xmlns:xlink="http://www.w3.org/1999/xlink" xmlns:lucid="lucid" width="1180" height="344"><g transform="translate(-320 -260)" lucid:page-tab-id="0_0"><path d="M0 0h1760v1360H0z" fill="#fff"/><path d="M340 288a8 8 0 0 1 8-8h464a8 8 0 0 1 8 8v88a8 8 0 0 1-8 8H348a8 8 0 0 1-8-8z" fill="#fff"/><path d="M340 288a8 8 0 0 1 8-8h464a8 8 0 0 1 8 8v88a8 8 0 0 1-8 8H348a8 8 0 0 1-8-8zM340 320h480M400 320v64M641.33 320v64" stroke="#333" fill="none"/><use xlink:href="#a" transform="matrix(1,0,0,1,350,280) translate(212.525 23.6)"/><use xlink:href="#b" transform="matrix(1,0,0,1,345,322.5) translate(13 17.1)"/><use xlink:href="#c" transform="matrix(1,0,0,1,405,322.5) translate(107.025 17.1)"/><use xlink:href="#d" transform="matrix(1,0,0,1,646.3333333333334,322.5) translate(44.574999999999996 17.1)"/><use xlink:href="#e" transform="matrix(1,0,0,1,405,354.5) translate(106.05 17.1)"/><use xlink:href="#f" transform="matrix(1,0,0,1,646.3333333333334,354.5) translate(61.55 17.1)"/><path d="M1000 288a8 8 0 0 1 8-8h464a8 8 0 0 1 8 8v152a8 8 0 0 1-8 8h-464a8 8 0 0 1-8-8z" fill="#fff"/><path d="M1000 288a8 8 0 0 1 8-8h464a8 8 0 0 1 8 8v152a8 8 0 0 1-8 8h-464a8 8 0 0 1-8-8zM1000 320h480M1060 320v128M1301.33 320v128" stroke="#333" fill="none"/><use xlink:href="#g" transform="matrix(1,0,0,1,1010,280) translate(186.575 23.6)"/><use xlink:href="#b" transform="matrix(1,0,0,1,1005,322.5) translate(13 17.1)"/><use xlink:href="#c" transform="matrix(1,0,0,1,1065,322.5) translate(107.025 17.1)"/><use xlink:href="#d" transform="matrix(1,0,0,1,1306.3333333333335,322.5) translate(44.574999999999996 17.1)"/><use xlink:href="#h" transform="matrix(1,0,0,1,1005,354.5) translate(13.524999999999999 17.1)"/><use xlink:href="#i" transform="matrix(1,0,0,1,1065,354.5) translate(95.05 17.1)"/><use xlink:href="#d" transform="matrix(1,0,0,1,1306.3333333333335,354.5) translate(44.574999999999996 17.1)"/><use xlink:href="#h" transform="matrix(1,0,0,1,1005,386.5) translate(13.524999999999999 17.1)"/><use xlink:href="#j" transform="matrix(1,0,0,1,1065,386.5) translate(89.55 17.1)"/><use xlink:href="#d" transform="matrix(1,0,0,1,1306.3333333333335,386.5) translate(44.574999999999996 17.1)"/><use xlink:href="#k" transform="matrix(1,0,0,1,1065,418.5) translate(101.5 17.1)"/><use xlink:href="#f" transform="matrix(1,0,0,1,1306.3333333333335,418.5) translate(61.55 17.1)"/><path d="M340 488a8 8 0 0 1 8-8h464a8 8 0 0 1 8 8v88a8 8 0 0 1-8 8H348a8 8 0 0 1-8-8z" fill="#fff"/><path d="M340 488a8 8 0 0 1 8-8h464a8 8 0 0 1 8 8v88a8 8 0 0 1-8 8H348a8 8 0 0 1-8-8zM340 520h480M400 520v64M641.33 520v64" stroke="#333" fill="none"/><use xlink:href="#l" transform="matrix(1,0,0,1,350,480) translate(206.55 23.6)"/><use xlink:href="#b" transform="matrix(1,0,0,1,345,522.5) translate(13 17.1)"/><use xlink:href="#c" transform="matrix(1,0,0,1,405,522.5) translate(107.025 17.1)"/><use xlink:href="#d" transform="matrix(1,0,0,1,646.3333333333334,522.5) translate(44.574999999999996 17.1)"/><use xlink:href="#m" transform="matrix(1,0,0,1,405,554.5) translate(93.525 17.1)"/><use xlink:href="#f" transform="matrix(1,0,0,1,646.3333333333334,554.5) translate(61.55 17.1)"/><path d="M840.5 336H898a12 12 0 0 1 12 12v8a12 12 0 0 0 12 12h58.1" stroke="#333" fill="none"/><path d="M840.5 346v-20M820.5 336h20" stroke="#333" fill="#fff"/><path d="M999.28 378l-20-10 20-10" stroke="#333" fill="#fff" fill-opacity="0"/><path d="M999.28 368h-20" stroke="#333" fill="#fff"/><path d="M840.5 536H898a12 12 0 0 0 12-12V412a12 12 0 0 1 12-12h58.1" stroke="#333" fill="none"/><path d="M840.5 546v-20M820.5 536h20" stroke="#333" fill="#fff"/><path d="M999.28 410l-20-10 20-10" stroke="#333" fill="#fff" fill-opacity="0"/><path d="M999.28 400h-20" stroke="#333" fill="#fff"/><defs><path fill="#333" d="M30-248c87 1 191-15 191 75 0 78-77 80-158 76V0H30v-248zm33 125c57 0 124 11 124-50 0-59-68-47-124-48v98" id="n"/><path fill="#333" d="M24-231v-30h32v30H24zM24 0v-190h32V0H24" id="o"/><path fill="#333" d="M117-194c89-4 53 116 60 194h-32v-121c0-31-8-49-39-48C34-167 62-67 57 0H25l-1-190h30c1 10-1 24 2 32 11-22 29-35 61-36" id="p"/><path fill="#333" d="M135-143c-3-34-86-38-87 0 15 53 115 12 119 90S17 21 10-45l28-5c4 36 97 45 98 0-10-56-113-15-118-90-4-57 82-63 122-42 12 7 21 19 24 35" id="q"/><g id="a"><use transform="matrix(0.05,0,0,0.05,0,0)" xlink:href="#n"/><use transform="matrix(0.05,0,0,0.05,12,0)" xlink:href="#o"/><use transform="matrix(0.05,0,0,0.05,15.949999999999998,0)" xlink:href="#p"/><use transform="matrix(0.05,0,0,0.05,25.950000000000003,0)" xlink:href="#q"/></g><path fill="#333" d="M194 0L95-120 63-95V0H30v-248h33v124l119-124h40L117-140 236 0h-42" id="r"/><g id="b"><use transform="matrix(0.05,0,0,0.05,0,0)" xlink:href="#n"/><use transform="matrix(0.05,0,0,0.05,12,0)" xlink:href="#r"/></g><path fill="#333" d="M33 0v-248h34V0H33" id="s"/><path fill="#333" d="M30-248c118-7 216 8 213 122C240-48 200 0 122 0H30v-248zM63-27c89 8 146-16 146-99s-60-101-146-95v194" id="t"/><g id="c"><use transform="matrix(0.05,0,0,0.05,0,0)" xlink:href="#s"/><use transform="matrix(0.05,0,0,0.05,5,0)" xlink:href="#t"/></g><path fill="#333" d="M190 0L58-211 59 0H30v-248h39L202-35l-2-213h31V0h-41" id="u"/><path fill="#333" d="M127-220V0H93v-220H8v-28h204v28h-85" id="v"/><path fill="#333" d="M30 0v-248h187v28H63v79h144v27H63v87h162V0H30" id="w"/><path fill="#333" d="M143 4C61 4 22-44 18-125c-5-107 100-154 193-111 17 8 29 25 37 43l-32 9c-13-25-37-40-76-40-61 0-88 39-88 99 0 61 29 100 91 101 35 0 62-11 79-27v-45h-74v-28h105v86C228-13 192 4 143 4" id="x"/><path fill="#333" d="M233-177c-1 41-23 64-60 70L243 0h-38l-65-103H63V0H30v-248c88 3 205-21 203 71zM63-129c60-2 137 13 137-47 0-61-80-42-137-45v92" id="y"/><g id="d"><use transform="matrix(0.05,0,0,0.05,0,0)" xlink:href="#s"/><use transform="matrix(0.05,0,0,0.05,5,0)" xlink:href="#u"/><use transform="matrix(0.05,0,0,0.05,17.950000000000003,0)" xlink:href="#v"/><use transform="matrix(0.05,0,0,0.05,28.900000000000006,0)" xlink:href="#w"/><use transform="matrix(0.05,0,0,0.05,40.900000000000006,0)" xlink:href="#x"/><use transform="matrix(0.05,0,0,0.05,54.900000000000006,0)" xlink:href="#w"/><use transform="matrix(0.05,0,0,0.05,66.9,0)" xlink:href="#y"/></g><path fill="#333" d="M84 4C-5 8 30-112 23-190h32v120c0 31 7 50 39 49 72-2 45-101 50-169h31l1 190h-30c-1-10 1-25-2-33-11 22-28 36-60 37" id="z"/><path fill="#333" d="M114-163C36-179 61-72 57 0H25l-1-190h30c1 12-1 29 2 39 6-27 23-49 58-41v29" id="A"/><path fill="#333" d="M24 0v-261h32V0H24" id="B"/><g id="e"><use transform="matrix(0.05,0,0,0.05,0,0)" xlink:href="#z"/><use transform="matrix(0.05,0,0,0.05,10,0)" xlink:href="#A"/><use transform="matrix(0.05,0,0,0.05,15.949999999999998,0)" xlink:href="#B"/></g><path fill="#333" d="M195 0l-74-108L45 0H8l94-129-87-119h37l69 98 67-98h37l-84 118L233 0h-38" id="C"/><g id="f"><use transform="matrix(0.05,0,0,0.05,0,0)" xlink:href="#v"/><use transform="matrix(0.05,0,0,0.05,10.950000000000001,0)" xlink:href="#w"/><use transform="matrix(0.05,0,0,0.05,22.950000000000003,0)" xlink:href="#C"/><use transform="matrix(0.05,0,0,0.05,34.95,0)" xlink:href="#v"/></g><path fill="#333" d="M212-179c-10-28-35-45-73-45-59 0-87 40-87 99 0 60 29 101 89 101 43 0 62-24 78-52l27 14C228-24 195 4 139 4 59 4 22-46 18-125c-6-104 99-153 187-111 19 9 31 26 39 46" id="D"/><path fill="#333" d="M100-194c62-1 85 37 85 99 1 63-27 99-86 99S16-35 15-95c0-66 28-99 85-99zM99-20c44 1 53-31 53-75 0-43-8-75-51-75s-53 32-53 75 10 74 51 75" id="E"/><path fill="#333" d="M210-169c-67 3-38 105-44 169h-31v-121c0-29-5-50-35-48C34-165 62-65 56 0H25l-1-190h30c1 10-1 24 2 32 10-44 99-50 107 0 11-21 27-35 58-36 85-2 47 119 55 194h-31v-121c0-29-5-49-35-48" id="F"/><path fill="#333" d="M100-194c63 0 86 42 84 106H49c0 40 14 67 53 68 26 1 43-12 49-29l28 8c-11 28-37 45-77 45C44 4 14-33 15-96c1-61 26-98 85-98zm52 81c6-60-76-77-97-28-3 7-6 17-6 28h103" id="G"/><path fill="#333" d="M59-47c-2 24 18 29 38 22v24C64 9 27 4 27-40v-127H5v-23h24l9-43h21v43h35v23H59v120" id="H"/><g id="g"><use transform="matrix(0.05,0,0,0.05,0,0)" xlink:href="#D"/><use transform="matrix(0.05,0,0,0.05,12.950000000000001,0)" xlink:href="#E"/><use transform="matrix(0.05,0,0,0.05,22.950000000000003,0)" xlink:href="#F"/><use transform="matrix(0.05,0,0,0.05,37.900000000000006,0)" xlink:href="#F"/><use transform="matrix(0.05,0,0,0.05,52.85,0)" xlink:href="#G"/><use transform="matrix(0.05,0,0,0.05,62.85,0)" xlink:href="#p"/><use transform="matrix(0.05,0,0,0.05,72.85000000000001,0)" xlink:href="#H"/><use transform="matrix(0.05,0,0,0.05,77.85000000000001,0)" xlink:href="#q"/></g><path fill="#333" d="M63-220v92h138v28H63V0H30v-248h175v28H63" id="I"/><g id="h"><use transform="matrix(0.05,0,0,0.05,0,0)" xlink:href="#I"/><use transform="matrix(0.05,0,0,0.05,10.950000000000001,0)" xlink:href="#r"/></g><path fill="#333" d="M115-194c55 1 70 41 70 98S169 2 115 4C84 4 66-9 55-30l1 105H24l-1-265h31l2 30c10-21 28-34 59-34zm-8 174c40 0 45-34 45-75s-6-73-45-74c-42 0-51 32-51 76 0 43 10 73 51 73" id="J"/><g id="i"><use transform="matrix(0.05,0,0,0.05,0,0)" xlink:href="#J"/><use transform="matrix(0.05,0,0,0.05,10,0)" xlink:href="#o"/><use transform="matrix(0.05,0,0,0.05,13.949999999999998,0)" xlink:href="#p"/><use transform="matrix(0.05,0,0,0.05,23.95,0)" xlink:href="#s"/><use transform="matrix(0.05,0,0,0.05,28.950000000000003,0)" xlink:href="#t"/></g><g id="j"><use transform="matrix(0.05,0,0,0.05,0,0)" xlink:href="#z"/><use transform="matrix(0.05,0,0,0.05,10,0)" xlink:href="#q"/><use transform="matrix(0.05,0,0,0.05,19,0)" xlink:href="#G"/><use transform="matrix(0.05,0,0,0.05,29,0)" xlink:href="#A"/><use transform="matrix(0.05,0,0,0.05,34.95,0)" xlink:href="#s"/><use transform="matrix(0.05,0,0,0.05,39.95,0)" xlink:href="#t"/></g><path fill="#333" d="M141 0L90-78 38 0H4l68-98-65-92h35l48 74 47-74h35l-64 92 68 98h-35" id="K"/><g id="k"><use transform="matrix(0.05,0,0,0.05,0,0)" xlink:href="#H"/><use transform="matrix(0.05,0,0,0.05,5,0)" xlink:href="#G"/><use transform="matrix(0.05,0,0,0.05,15,0)" xlink:href="#K"/><use transform="matrix(0.05,0,0,0.05,24,0)" xlink:href="#H"/></g><path fill="#333" d="M232-93c-1 65-40 97-104 97C67 4 28-28 28-90v-158h33c8 89-33 224 67 224 102 0 64-133 71-224h33v155" id="L"/><g id="l"><use transform="matrix(0.05,0,0,0.05,0,0)" xlink:href="#L"/><use transform="matrix(0.05,0,0,0.05,12.950000000000001,0)" xlink:href="#q"/><use transform="matrix(0.05,0,0,0.05,21.950000000000003,0)" xlink:href="#G"/><use transform="matrix(0.05,0,0,0.05,31.950000000000003,0)" xlink:href="#A"/><use transform="matrix(0.05,0,0,0.05,37.900000000000006,0)" xlink:href="#q"/></g><path fill="#333" d="M141-36C126-15 110 5 73 4 37 3 15-17 15-53c-1-64 63-63 125-63 3-35-9-54-41-54-24 1-41 7-42 31l-33-3c5-37 33-52 76-52 45 0 72 20 72 64v82c-1 20 7 32 28 27v20c-31 9-61-2-59-35zM48-53c0 20 12 33 32 33 41-3 63-29 60-74-43 2-92-5-92 41" id="M"/><g id="m"><use transform="matrix(0.05,0,0,0.05,0,0)" xlink:href="#p"/><use transform="matrix(0.05,0,0,0.05,10,0)" xlink:href="#M"/><use transform="matrix(0.05,0,0,0.05,20,0)" xlink:href="#F"/><use transform="matrix(0.05,0,0,0.05,34.95,0)" xlink:href="#G"/></g></defs></g></svg>