<svg xmlns="http://www.w3.org/2000/svg" xmlns:xlink="http://www.w3.org/1999/xlink" xmlns:lucid="lucid" width="1123.5" height="492"><g transform="translate(-260 -548)" lucid:page-tab-id="0_0"><path d="M0 0h1870.87v1322.84H0z" fill="#fff"/><path d="M860 828a8 8 0 0 1 8-8h464a8 8 0 0 1 8 8v184a8 8 0 0 1-8 8H868a8 8 0 0 1-8-8z" fill="#fff"/><path d="M860 828a8 8 0 0 1 8-8h464a8 8 0 0 1 8 8v184a8 8 0 0 1-8 8H868a8 8 0 0 1-8-8zM860 860h480M920 860v160M1161.33 860v160" stroke="#333" fill="none"/><use xlink:href="#a" transform="matrix(1,0,0,1,870,820) translate(186.575 23.6)"/><use xlink:href="#b" transform="matrix(1,0,0,1,865,862.5) translate(13 17.1)"/><use xlink:href="#c" transform="matrix(1,0,0,1,925,862.5) translate(107.025 17.1)"/><use xlink:href="#d" transform="matrix(1,0,0,1,1166.3333333333335,862.5) translate(44.574999999999996 17.1)"/><use xlink:href="#e" transform="matrix(1,0,0,1,865,894.5) translate(13.524999999999999 17.1)"/><use xlink:href="#f" transform="matrix(1,0,0,1,925,894.5) translate(91.55 17.1)"/><use xlink:href="#d" transform="matrix(1,0,0,1,1166.3333333333335,894.5) translate(44.574999999999996 17.1)"/><use xlink:href="#e" transform="matrix(1,0,0,1,865,926.5) translate(13.524999999999999 17.1)"/><use xlink:href="#g" transform="matrix(1,0,0,1,925,926.5) translate(88.05 17.1)"/><use xlink:href="#d" transform="matrix(1,0,0,1,1166.3333333333335,926.5) translate(44.574999999999996 17.1)"/><use xlink:href="#e" transform="matrix(1,0,0,1,865,958.5) translate(13.524999999999999 17.1)"/><use xlink:href="#h" transform="matrix(1,0,0,1,925,958.5) translate(34.67500000000001 17.1)"/><use xlink:href="#d" transform="matrix(1,0,0,1,1166.3333333333335,958.5) translate(44.574999999999996 17.1)"/><use xlink:href="#i" transform="matrix(1,0,0,1,925,990.5) translate(101.5 17.1)"/><use xlink:href="#j" transform="matrix(1,0,0,1,1166.3333333333335,990.5) translate(61.55 17.1)"/><path d="M280 608.03a8 8 0 0 1 8-8h464a8 8 0 0 1 8 8v88a8 8 0 0 1-8 8H288a8 8 0 0 1-8-8z" fill="#fff"/><path d="M280 608.03a8 8 0 0 1 8-8h464a8 8 0 0 1 8 8v88a8 8 0 0 1-8 8H288a8 8 0 0 1-8-8zM280 640.03h480M340 640.03v64M581.33 640.03v64" stroke="#333" fill="none"/><use xlink:href="#k" transform="matrix(1,0,0,1,290,600.0333285323027) translate(206.55 23.6)"/><use xlink:href="#b" transform="matrix(1,0,0,1,285,642.5333285323027) translate(13 17.1)"/><use xlink:href="#c" transform="matrix(1,0,0,1,345,642.5333285323027) translate(107.025 17.1)"/><use xlink:href="#d" transform="matrix(1,0,0,1,586.3333333333334,642.5333285323027) translate(44.574999999999996 17.1)"/><use xlink:href="#l" transform="matrix(1,0,0,1,345,674.5333285323027) translate(93.525 17.1)"/><use xlink:href="#j" transform="matrix(1,0,0,1,586.3333333333334,674.5333285323027) translate(61.55 17.1)"/><path d="M860 576a8 8 0 0 1 8-8h464a8 8 0 0 1 8 8v120a8 8 0 0 1-8 8H868a8 8 0 0 1-8-8z" fill="#fff"/><path d="M860 576a8 8 0 0 1 8-8h464a8 8 0 0 1 8 8v120a8 8 0 0 1-8 8H868a8 8 0 0 1-8-8zM860 608h480M920 608v96M1161.33 608v96" stroke="#333" fill="none"/><use xlink:href="#m" transform="matrix(1,0,0,1,870,568) translate(209.025 23.6)"/><use xlink:href="#b" transform="matrix(1,0,0,1,865,610.5) translate(13 17.1)"/><use xlink:href="#c" transform="matrix(1,0,0,1,925,610.5) translate(107.025 17.1)"/><use xlink:href="#d" transform="matrix(1,0,0,1,1166.3333333333335,610.5) translate(44.574999999999996 17.1)"/><use xlink:href="#e" transform="matrix(1,0,0,1,865,642.5) translate(13.524999999999999 17.1)"/><use xlink:href="#g" transform="matrix(1,0,0,1,925,642.5) translate(88.05 17.1)"/><use xlink:href="#d" transform="matrix(1,0,0,1,1166.3333333333335,642.5) translate(44.574999999999996 17.1)"/><use xlink:href="#l" transform="matrix(1,0,0,1,925,674.5) translate(93.525 17.1)"/><use xlink:href="#j" transform="matrix(1,0,0,1,1166.3333333333335,674.5) translate(61.55 17.1)"/><path d="M780.5 656.03h29.48a.02.02 0 0 0 .02 0 .02.02 0 0 1 .02-.03h30.66" stroke="#5e5e5e" stroke-width="2" fill="none"/><path d="M780.5 666.03v-20M760.5 656.03h20" stroke="#5e5e5e" stroke-width="2" fill="#fff"/><path d="M859.05 666l-20-10 20-10" stroke="#5e5e5e" stroke-width="2" fill="#fff" fill-opacity="0"/><path d="M859.05 656h-20" stroke="#5e5e5e" stroke-width="2" fill="#fff"/><path d="M780.5 656.03H804a6 6 0 0 1 6 6V934a6 6 0 0 0 6 6h24.68" stroke="#5e5e5e" stroke-width="2" fill="none"/><path d="M780.5 666.03v-20M760.5 656.03h20" stroke="#5e5e5e" stroke-width="2" fill="#fff"/><path d="M859.05 950l-20-10 20-10" stroke="#5e5e5e" stroke-width="2" fill="#fff" fill-opacity="0"/><path d="M859.05 940h-20" stroke="#5e5e5e" stroke-width="2" fill="#fff"/><path d="M1360.5 656h14a6 6 0 0 1 6 6v94a6 6 0 0 1-6 6h-549a6 6 0 0 0-6 6v134a6 6 0 0 0 6 6h15.18" stroke="#5e5e5e" stroke-width="2" fill="none"/><path d="M1360.5 666v-20M1340.5 656h20" stroke="#5e5e5e" stroke-width="2" fill="#fff"/><path d="M859.05 918l-20-10 20-10" stroke="#5e5e5e" stroke-width="2" fill="#fff" fill-opacity="0"/><path d="M859.05 908h-20" stroke="#5e5e5e" stroke-width="2" fill="#fff"/><path d="M839.5 876H786a6 6 0 0 0-6 6v84a6 6 0 0 0 6 6h54.68" stroke="#5e5e5e" stroke-width="2" fill="none"/><path d="M839.5 866v20M859.5 876h-20" stroke="#5e5e5e" stroke-width="2" fill="#fff"/><path d="M859.05 982l-20-10 20-10" stroke="#5e5e5e" stroke-width="2" fill="#fff" fill-opacity="0"/><path d="M859.05 972h-20" stroke="#5e5e5e" stroke-width="2" fill="#fff"/><defs><path fill="#333" d="M212-179c-10-28-35-45-73-45-59 0-87 40-87 99 0 60 29 101 89 101 43 0 62-24 78-52l27 14C228-24 195 4 139 4 59 4 22-46 18-125c-6-104 99-153 187-111 19 9 31 26 39 46" id="n"/><path fill="#333" d="M100-194c62-1 85 37 85 99 1 63-27 99-86 99S16-35 15-95c0-66 28-99 85-99zM99-20c44 1 53-31 53-75 0-43-8-75-51-75s-53 32-53 75 10 74 51 75" id="o"/><path fill="#333" d="M210-169c-67 3-38 105-44 169h-31v-121c0-29-5-50-35-48C34-165 62-65 56 0H25l-1-190h30c1 10-1 24 2 32 10-44 99-50 107 0 11-21 27-35 58-36 85-2 47 119 55 194h-31v-121c0-29-5-49-35-48" id="p"/><path fill="#333" d="M100-194c63 0 86 42 84 106H49c0 40 14 67 53 68 26 1 43-12 49-29l28 8c-11 28-37 45-77 45C44 4 14-33 15-96c1-61 26-98 85-98zm52 81c6-60-76-77-97-28-3 7-6 17-6 28h103" id="q"/><path fill="#333" d="M117-194c89-4 53 116 60 194h-32v-121c0-31-8-49-39-48C34-167 62-67 57 0H25l-1-190h30c1 10-1 24 2 32 11-22 29-35 61-36" id="r"/><path fill="#333" d="M59-47c-2 24 18 29 38 22v24C64 9 27 4 27-40v-127H5v-23h24l9-43h21v43h35v23H59v120" id="s"/><path fill="#333" d="M135-143c-3-34-86-38-87 0 15 53 115 12 119 90S17 21 10-45l28-5c4 36 97 45 98 0-10-56-113-15-118-90-4-57 82-63 122-42 12 7 21 19 24 35" id="t"/><g id="a"><use transform="matrix(0.05,0,0,0.05,0,0)" xlink:href="#n"/><use transform="matrix(0.05,0,0,0.05,12.950000000000001,0)" xlink:href="#o"/><use transform="matrix(0.05,0,0,0.05,22.950000000000003,0)" xlink:href="#p"/><use transform="matrix(0.05,0,0,0.05,37.900000000000006,0)" xlink:href="#p"/><use transform="matrix(0.05,0,0,0.05,52.85,0)" xlink:href="#q"/><use transform="matrix(0.05,0,0,0.05,62.85,0)" xlink:href="#r"/><use transform="matrix(0.05,0,0,0.05,72.85000000000001,0)" xlink:href="#s"/><use transform="matrix(0.05,0,0,0.05,77.85000000000001,0)" xlink:href="#t"/></g><path fill="#333" d="M30-248c87 1 191-15 191 75 0 78-77 80-158 76V0H30v-248zm33 125c57 0 124 11 124-50 0-59-68-47-124-48v98" id="u"/><path fill="#333" d="M194 0L95-120 63-95V0H30v-248h33v124l119-124h40L117-140 236 0h-42" id="v"/><g id="b"><use transform="matrix(0.05,0,0,0.05,0,0)" xlink:href="#u"/><use transform="matrix(0.05,0,0,0.05,12,0)" xlink:href="#v"/></g><path fill="#333" d="M33 0v-248h34V0H33" id="w"/><path fill="#333" d="M30-248c118-7 216 8 213 122C240-48 200 0 122 0H30v-248zM63-27c89 8 146-16 146-99s-60-101-146-95v194" id="x"/><g id="c"><use transform="matrix(0.05,0,0,0.05,0,0)" xlink:href="#w"/><use transform="matrix(0.05,0,0,0.05,5,0)" xlink:href="#x"/><path fill="#333" d="M-.9 1.25h19.75v1.32H-.9z"/></g><path fill="#333" d="M190 0L58-211 59 0H30v-248h39L202-35l-2-213h31V0h-41" id="y"/><path fill="#333" d="M127-220V0H93v-220H8v-28h204v28h-85" id="z"/><path fill="#333" d="M30 0v-248h187v28H63v79h144v27H63v87h162V0H30" id="A"/><path fill="#333" d="M143 4C61 4 22-44 18-125c-5-107 100-154 193-111 17 8 29 25 37 43l-32 9c-13-25-37-40-76-40-61 0-88 39-88 99 0 61 29 100 91 101 35 0 62-11 79-27v-45h-74v-28h105v86C228-13 192 4 143 4" id="B"/><path fill="#333" d="M233-177c-1 41-23 64-60 70L243 0h-38l-65-103H63V0H30v-248c88 3 205-21 203 71zM63-129c60-2 137 13 137-47 0-61-80-42-137-45v92" id="C"/><g id="d"><use transform="matrix(0.05,0,0,0.05,0,0)" xlink:href="#w"/><use transform="matrix(0.05,0,0,0.05,5,0)" xlink:href="#y"/><use transform="matrix(0.05,0,0,0.05,17.950000000000003,0)" xlink:href="#z"/><use transform="matrix(0.05,0,0,0.05,28.900000000000006,0)" xlink:href="#A"/><use transform="matrix(0.05,0,0,0.05,40.900000000000006,0)" xlink:href="#B"/><use transform="matrix(0.05,0,0,0.05,54.900000000000006,0)" xlink:href="#A"/><use transform="matrix(0.05,0,0,0.05,66.9,0)" xlink:href="#C"/></g><path fill="#333" d="M63-220v92h138v28H63V0H30v-248h175v28H63" id="D"/><g id="e"><use transform="matrix(0.05,0,0,0.05,0,0)" xlink:href="#D"/><use transform="matrix(0.05,0,0,0.05,10.950000000000001,0)" xlink:href="#v"/></g><path fill="#333" d="M25 0v-261h50V0H25" id="E"/><path fill="#333" d="M25-224v-37h50v37H25zM25 0v-190h50V0H25" id="F"/><path fill="#333" d="M135-194c87-1 58 113 63 194h-50c-7-57 23-157-34-157-59 0-34 97-39 157H25l-1-190h47c2 12-1 28 3 38 12-26 28-41 61-42" id="G"/><path fill="#333" d="M147 0L96-86 75-71V0H25v-261h50v150l67-79h53l-66 74L201 0h-54" id="H"/><path fill="#333" d="M24 0v-248h52V0H24" id="I"/><path fill="#333" d="M24-248c120-7 223 5 221 122C244-46 201 0 124 0H24v-248zM76-40c74 7 117-18 117-86 0-67-45-88-117-82v168" id="J"/><g id="f"><use transform="matrix(0.05,0,0,0.05,0,0)" xlink:href="#E"/><use transform="matrix(0.05,0,0,0.05,5,0)" xlink:href="#F"/><use transform="matrix(0.05,0,0,0.05,10,0)" xlink:href="#G"/><use transform="matrix(0.05,0,0,0.05,20.950000000000003,0)" xlink:href="#H"/><use transform="matrix(0.05,0,0,0.05,30.950000000000003,0)" xlink:href="#I"/><use transform="matrix(0.05,0,0,0.05,35.95,0)" xlink:href="#J"/></g><path fill="#333" d="M85 4C-2 5 27-109 22-190h50c7 57-23 150 33 157 60-5 35-97 40-157h50l1 190h-47c-2-12 1-28-3-38-12 25-28 42-61 42" id="K"/><path fill="#333" d="M137-138c1-29-70-34-71-4 15 46 118 7 119 86 1 83-164 76-172 9l43-7c4 19 20 25 44 25 33 8 57-30 24-41C81-84 22-81 20-136c-2-80 154-74 161-7" id="L"/><path fill="#333" d="M185-48c-13 30-37 53-82 52C43 2 14-33 14-96s30-98 90-98c62 0 83 45 84 108H66c0 31 8 55 39 56 18 0 30-7 34-22zm-45-69c5-46-57-63-70-21-2 6-4 13-4 21h74" id="M"/><path fill="#333" d="M135-150c-39-12-60 13-60 57V0H25l-1-190h47c2 13-1 29 3 40 6-28 27-53 61-41v41" id="N"/><g id="g"><use transform="matrix(0.05,0,0,0.05,0,0)" xlink:href="#K"/><use transform="matrix(0.05,0,0,0.05,10.950000000000001,0)" xlink:href="#L"/><use transform="matrix(0.05,0,0,0.05,20.950000000000003,0)" xlink:href="#M"/><use transform="matrix(0.05,0,0,0.05,30.950000000000003,0)" xlink:href="#N"/><use transform="matrix(0.05,0,0,0.05,37.95,0)" xlink:href="#I"/><use transform="matrix(0.05,0,0,0.05,42.95,0)" xlink:href="#J"/></g><path fill="#333" d="M135-194c53 0 70 44 70 98 0 56-19 98-73 100-31 1-45-17-59-34 3 33 2 69 2 105H25l-1-265h48c2 10 0 23 3 31 11-24 29-35 60-35zM114-30c33 0 39-31 40-66 0-38-9-64-40-64-56 0-55 130 0 130" id="O"/><path fill="#333" d="M133-34C117-15 103 5 69 4 32 3 11-16 11-54c-1-60 55-63 116-61 1-26-3-47-28-47-18 1-26 9-28 27l-52-2c7-38 36-58 82-57s74 22 75 68l1 82c-1 14 12 18 25 15v27c-30 8-71 5-69-32zm-48 3c29 0 43-24 42-57-32 0-66-3-65 30 0 17 8 27 23 27" id="P"/><path fill="#333" d="M115-3C79 11 28 4 28-45v-112H4v-33h27l15-45h31v45h36v33H77v99c-1 23 16 31 38 25v30" id="Q"/><path fill="#333" d="M190-63c-7 42-38 67-86 67-59 0-84-38-90-98-12-110 154-137 174-36l-49 2c-2-19-15-32-35-32-30 0-35 28-38 64-6 74 65 87 74 30" id="R"/><path fill="#333" d="M110-194c64 0 96 36 96 99 0 64-35 99-97 99-61 0-95-36-95-99 0-62 34-99 96-99zm-1 164c35 0 45-28 45-65 0-40-10-65-43-65-34 0-45 26-45 65 0 36 10 65 43 65" id="S"/><path fill="#333" d="M220-157c-53 9-28 100-34 157h-49v-107c1-27-5-49-29-50C55-147 81-57 75 0H25l-1-190h47c2 12-1 28 3 38 10-53 101-56 108 0 13-22 24-43 59-42 82 1 51 116 57 194h-49v-107c-1-25-5-48-29-50" id="T"/><g id="h"><use transform="matrix(0.05,0,0,0.05,0,0)" xlink:href="#O"/><use transform="matrix(0.05,0,0,0.05,10.950000000000001,0)" xlink:href="#P"/><use transform="matrix(0.05,0,0,0.05,20.950000000000003,0)" xlink:href="#N"/><use transform="matrix(0.05,0,0,0.05,27.950000000000003,0)" xlink:href="#M"/><use transform="matrix(0.05,0,0,0.05,37.95,0)" xlink:href="#G"/><use transform="matrix(0.05,0,0,0.05,48.900000000000006,0)" xlink:href="#Q"/><use transform="matrix(0.05,0,0,0.05,54.85,0)" xlink:href="#R"/><use transform="matrix(0.05,0,0,0.05,64.85000000000001,0)" xlink:href="#S"/><use transform="matrix(0.05,0,0,0.05,75.80000000000001,0)" xlink:href="#T"/><use transform="matrix(0.05,0,0,0.05,91.80000000000001,0)" xlink:href="#T"/><use transform="matrix(0.05,0,0,0.05,107.80000000000001,0)" xlink:href="#M"/><use transform="matrix(0.05,0,0,0.05,117.80000000000001,0)" xlink:href="#G"/><use transform="matrix(0.05,0,0,0.05,128.75,0)" xlink:href="#Q"/><use transform="matrix(0.05,0,0,0.05,134.7,0)" xlink:href="#L"/><use transform="matrix(0.05,0,0,0.05,144.7,0)" xlink:href="#I"/><use transform="matrix(0.05,0,0,0.05,149.7,0)" xlink:href="#J"/></g><path fill="#333" d="M141 0L90-78 38 0H4l68-98-65-92h35l48 74 47-74h35l-64 92 68 98h-35" id="U"/><g id="i"><use transform="matrix(0.05,0,0,0.05,0,0)" xlink:href="#s"/><use transform="matrix(0.05,0,0,0.05,5,0)" xlink:href="#q"/><use transform="matrix(0.05,0,0,0.05,15,0)" xlink:href="#U"/><use transform="matrix(0.05,0,0,0.05,24,0)" xlink:href="#s"/></g><path fill="#333" d="M195 0l-74-108L45 0H8l94-129-87-119h37l69 98 67-98h37l-84 118L233 0h-38" id="V"/><g id="j"><use transform="matrix(0.05,0,0,0.05,0,0)" xlink:href="#z"/><use transform="matrix(0.05,0,0,0.05,10.950000000000001,0)" xlink:href="#A"/><use transform="matrix(0.05,0,0,0.05,22.950000000000003,0)" xlink:href="#V"/><use transform="matrix(0.05,0,0,0.05,34.95,0)" xlink:href="#z"/></g><path fill="#333" d="M232-93c-1 65-40 97-104 97C67 4 28-28 28-90v-158h33c8 89-33 224 67 224 102 0 64-133 71-224h33v155" id="W"/><path fill="#333" d="M114-163C36-179 61-72 57 0H25l-1-190h30c1 12-1 29 2 39 6-27 23-49 58-41v29" id="X"/><g id="k"><use transform="matrix(0.05,0,0,0.05,0,0)" xlink:href="#W"/><use transform="matrix(0.05,0,0,0.05,12.950000000000001,0)" xlink:href="#t"/><use transform="matrix(0.05,0,0,0.05,21.950000000000003,0)" xlink:href="#q"/><use transform="matrix(0.05,0,0,0.05,31.950000000000003,0)" xlink:href="#X"/><use transform="matrix(0.05,0,0,0.05,37.900000000000006,0)" xlink:href="#t"/></g><path fill="#333" d="M141-36C126-15 110 5 73 4 37 3 15-17 15-53c-1-64 63-63 125-63 3-35-9-54-41-54-24 1-41 7-42 31l-33-3c5-37 33-52 76-52 45 0 72 20 72 64v82c-1 20 7 32 28 27v20c-31 9-61-2-59-35zM48-53c0 20 12 33 32 33 41-3 63-29 60-74-43 2-92-5-92 41" id="Y"/><g id="l"><use transform="matrix(0.05,0,0,0.05,0,0)" xlink:href="#r"/><use transform="matrix(0.05,0,0,0.05,10,0)" xlink:href="#Y"/><use transform="matrix(0.05,0,0,0.05,20,0)" xlink:href="#p"/><use transform="matrix(0.05,0,0,0.05,34.95,0)" xlink:href="#q"/></g><path fill="#333" d="M30 0v-248h33v221h125V0H30" id="Z"/><path fill="#333" d="M24-231v-30h32v30H24zM24 0v-190h32V0H24" id="aa"/><path fill="#333" d="M143 0L79-87 56-68V0H24v-261h32v163l83-92h37l-77 82L181 0h-38" id="ab"/><g id="m"><use transform="matrix(0.05,0,0,0.05,0,0)" xlink:href="#Z"/><use transform="matrix(0.05,0,0,0.05,10,0)" xlink:href="#aa"/><use transform="matrix(0.05,0,0,0.05,13.949999999999998,0)" xlink:href="#r"/><use transform="matrix(0.05,0,0,0.05,23.95,0)" xlink:href="#ab"/><use transform="matrix(0.05,0,0,0.05,32.95,0)" xlink:href="#t"/></g></defs></g></svg>